<mxfile host="app.diagrams.net" modified="2023-05-12T13:28:51.686Z" agent="Mozilla/5.0 (Windows NT 10.0; Win64; x64) AppleWebKit/537.36 (KHTML, like Gecko) Chrome/113.0.0.0 Safari/537.36" version="21.2.9" etag="tAu2fEVya1FbMJWXnIAN" type="github">
  <diagram name="第 1 页" id="Istt8yzzH1r4wCvQoiBN">
    <mxGraphModel>
      <root>
        <mxCell id="0" />
        <mxCell id="1" parent="0" />
      </root>
    </mxGraphModel>
  </diagram>
</mxfile>
